<?xml version="1.0" encoding="UTF-8" standalone="yes"?><svg xmlns="http://www.w3.org/2000/svg" xmlns:xlink="http://www.w3.org/1999/xlink" height="329pt" style="width:595px;height:329px;" version="1.1" viewBox="0 0 595 329" width="595pt"><defs><filter height="300%" id="f1" width="300%" x="-1" y="-1"><feGaussianBlur result="blurOut" stdDeviation="2.0"/><feColorMatrix in="blurOut" result="blurOut2" type="matrix" values="0 0 0 0 0 0 0 0 0 0 0 0 0 0 0 0 0 0 .4 0"/><feOffset dx="4.0" dy="4.0" in="blurOut2" result="blurOut3"/><feBlend in="SourceGraphic" in2="blurOut3" mode="normal"/></filter></defs><g><ellipse cx="141.5" cy="180" fill="#FEFECE" filter="url(#f1)" rx="8" ry="8" style="stroke: #A80036; stroke-width: 2.0;"/><text fill="#000000" font-family="sans-serif" font-size="14" lengthAdjust="spacingAndGlyphs" textLength="51" x="116" y="201.9951">HTTP/S</text><rect fill="#FEFECE" filter="url(#f1)" height="36.2969" style="stroke: #A80036; stroke-width: 1.5;" width="117" x="237" y="170"/><rect fill="#FEFECE" height="5" style="stroke: #A80036; stroke-width: 1.5;" width="10" x="232" y="175"/><rect fill="#FEFECE" height="5" style="stroke: #A80036; stroke-width: 1.5;" width="10" x="232" y="196.2969"/><text fill="#000000" font-family="sans-serif" font-size="14" lengthAdjust="spacingAndGlyphs" textLength="97" x="247" y="192.9951">Load Balancer</text><ellipse cx="141.75" cy="18.5" fill="#FEFECE" filter="url(#f1)" rx="8" ry="8" style="stroke: #A80036; stroke-width: 2.0;"/><path d="M141.75,26.5 L141.75,53.5 M128.75,34.5 L154.75,34.5 M141.75,53.5 L128.75,68.5 M141.75,53.5 L154.75,68.5 " fill="#FEFECE" filter="url(#f1)" style="stroke: #A80036; stroke-width: 2.0;"/><text fill="#000000" font-family="sans-serif" font-size="14" lengthAdjust="spacingAndGlyphs" textLength="42" x="120.75" y="88.4951">Visitor</text><rect fill="#FEFECE" filter="url(#f1)" height="36.2969" style="stroke: #A80036; stroke-width: 1.5;" width="67" x="6" y="284"/><rect fill="#FEFECE" height="5" style="stroke: #A80036; stroke-width: 1.5;" width="10" x="1" y="289"/><rect fill="#FEFECE" height="5" style="stroke: #A80036; stroke-width: 1.5;" width="10" x="1" y="310.2969"/><text fill="#000000" font-family="sans-serif" font-size="14" lengthAdjust="spacingAndGlyphs" textLength="47" x="16" y="306.9951">Tank 1</text><rect fill="#FEFECE" filter="url(#f1)" height="36.2969" style="stroke: #A80036; stroke-width: 1.5;" width="67" x="198" y="284"/><rect fill="#FEFECE" height="5" style="stroke: #A80036; stroke-width: 1.5;" width="10" x="193" y="289"/><rect fill="#FEFECE" height="5" style="stroke: #A80036; stroke-width: 1.5;" width="10" x="193" y="310.2969"/><text fill="#000000" font-family="sans-serif" font-size="14" lengthAdjust="spacingAndGlyphs" textLength="47" x="208" y="306.9951">Tank 2</text><rect fill="#FEFECE" filter="url(#f1)" height="36.2969" style="stroke: #A80036; stroke-width: 1.5;" width="60" x="403.75" y="284"/><rect fill="#FEFECE" height="5" style="stroke: #A80036; stroke-width: 1.5;" width="10" x="398.75" y="289"/><rect fill="#FEFECE" height="5" style="stroke: #A80036; stroke-width: 1.5;" width="10" x="398.75" y="310.2969"/><text fill="#000000" font-family="sans-serif" font-size="14" lengthAdjust="spacingAndGlyphs" textLength="40" x="413.75" y="306.9951">Meter</text><rect fill="#FEFECE" filter="url(#f1)" height="36.2969" style="stroke: #A80036; stroke-width: 1.5;" width="61" x="525" y="284"/><rect fill="#FEFECE" height="5" style="stroke: #A80036; stroke-width: 1.5;" width="10" x="520" y="289"/><rect fill="#FEFECE" height="5" style="stroke: #A80036; stroke-width: 1.5;" width="10" x="520" y="310.2969"/><text fill="#000000" font-family="sans-serif" font-size="14" lengthAdjust="spacingAndGlyphs" textLength="41" x="535" y="306.9951">Board</text><path d="M166.516,188 C189.983,188 213.45,188 236.917,188 " fill="none" style="stroke: #A80036; stroke-width: 1.0;"/><path d="M141.25,91.804 C141.25,116.224 141.25,146.247 141.25,165.967 " fill="none" style="stroke: #A80036; stroke-width: 1.0; stroke-dasharray: 7.0,7.0;"/><polygon fill="#A80036" points="141.25,170.995,145.25,161.995,141.25,165.995,137.25,161.995,141.25,170.995" style="stroke: #A80036; stroke-width: 1.0;"/><text fill="#000000" font-family="sans-serif" font-size="13" lengthAdjust="spacingAndGlyphs" textLength="85" x="142.25" y="135.0669">HTTP request</text><path d="M236.774,197.999 C173.052,208.264 78.3673,225.0424 65.25,236 C52.4565,246.6871 45.9085,264.5806 42.586,278.8909 " fill="none" style="stroke: #A80036; stroke-width: 1.0; stroke-dasharray: 7.0,7.0;"/><polygon fill="#A80036" points="41.5023,283.9811,47.2889,276.0114,42.5436,279.0907,39.4643,274.3454,41.5023,283.9811" style="stroke: #A80036; stroke-width: 1.0;"/><text fill="#000000" font-family="sans-serif" font-size="13" lengthAdjust="spacingAndGlyphs" textLength="85" x="66.25" y="249.0669">HTTP request</text><path d="M236.731,194.845 C210.019,200.775 180.727,212.583 164.25,236 C151.451,254.1897 171.63,271.5572 193.107,283.7565 " fill="none" style="stroke: #A80036; stroke-width: 1.0; stroke-dasharray: 7.0,7.0;"/><polygon fill="#A80036" points="197.698,286.2797,191.7376,278.4392,193.3163,283.8713,187.8842,285.4499,197.698,286.2797" style="stroke: #A80036; stroke-width: 1.0;"/><text fill="#000000" font-family="sans-serif" font-size="13" lengthAdjust="spacingAndGlyphs" textLength="85" x="165.25" y="249.0669">HTTP request</text><path d="M283.028,210.389 C270.832,231.7312 252.331,264.1077 241.062,283.8295 " fill="none" style="stroke: #A80036; stroke-width: 1.0; stroke-dasharray: 7.0,7.0;"/><polygon fill="#A80036" points="285.53,206.01,277.5903,211.8377,283.0482,210.3506,284.5353,215.8085,285.53,206.01" style="stroke: #A80036; stroke-width: 1.0;"/><text fill="#000000" font-family="sans-serif" font-size="13" lengthAdjust="spacingAndGlyphs" textLength="95" x="268.25" y="249.0669">HTTP response</text><path d="M328.111,206.047 C342.581,214.233 359.402,224.7131 373.25,236 C389.217,249.0134 404.923,266.2331 416.258,279.6793 " fill="none" style="stroke: #A80036; stroke-width: 1.0; stroke-dasharray: 7.0,7.0;"/><polygon fill="#A80036" points="419.631,283.7223,416.9377,274.2489,416.4282,279.8827,410.7944,279.3733,419.631,283.7223" style="stroke: #A80036; stroke-width: 1.0;"/><text fill="#000000" font-family="sans-serif" font-size="13" lengthAdjust="spacingAndGlyphs" textLength="79" x="392.25" y="249.0669">traffic usage</text><path d="M358.497,197.354 C395.796,204.101 443.022,215.897 481.25,236 C504.406,248.1768 526.316,269.0161 540.197,283.814 " fill="none" style="stroke: #A80036; stroke-width: 1.0; stroke-dasharray: 7.0,7.0;"/><polygon fill="#A80036" points="353.535,196.475,361.7,201.9825,358.4585,197.3465,363.0945,194.105,353.535,196.475" style="stroke: #A80036; stroke-width: 1.0;"/><text fill="#000000" font-family="sans-serif" font-size="13" lengthAdjust="spacingAndGlyphs" textLength="78" x="509.25" y="249.0669">routing map</text></g></svg>