<?xml version="1.0" encoding="utf-8"?>
<!-- Generator: Adobe Illustrator 17.1.0, SVG Export Plug-In . SVG Version: 6.00 Build 0)  -->
<!DOCTYPE svg PUBLIC "-//W3C//DTD SVG 1.1//EN" "http://www.w3.org/Graphics/SVG/1.1/DTD/svg11.dtd">
<svg version="1.1" id="Layer_1" xmlns="http://www.w3.org/2000/svg" xmlns:xlink="http://www.w3.org/1999/xlink" x="0px" y="0px"
	 viewBox="0 0 125 25" enable-background="new 0 0 125 25" xml:space="preserve">
<g>
	<rect fill="#616170" width="125" height="25"/>
	<rect x="0" fill="#383844" width="46.4" height="25"/>
	<g>
		<path fill="#909099" d="M56.8,16.5c0.7,0,1.1,0,1.8,0v1.3c-0.8,0.4-2,0.7-3,0.7h-0.2c-1.5,0-2.2-0.8-2.2-2.6v-5.4H52V8.8h0.9
			c0.4,0,0.5-0.1,0.5-0.4v-2c1-0.1,1.5-0.2,2.2-0.2v2.7h2.8v1.7h-2.8v4.2c0,1.3,0.2,1.7,1.1,1.7H56.8z"/>
		<path fill="#909099" d="M64.3,8.6c2.8,0,4,1.2,4,3.8v2.2h-6.6V15c0,1.2,0.8,1.7,1.9,1.7h0.8c0.8,0,1.4-0.1,1.7-0.8l0.1-0.4H68v1.6
			c-1,0.9-2.4,1.3-3.8,1.3h-0.6c-3.1,0-4.3-1.2-4.3-4.3v-1.6c0-2.7,1.5-4,4.3-4L64.3,8.6L64.3,8.6z M66.1,11.9c0-1.1-0.8-1.6-2-1.6
			h-0.5c-1.2,0-2,0.6-2,1.7v0.9h4.4V11.9L66.1,11.9z"/>
		<path fill="#909099" d="M78.1,16.4c0.3,0,0.7,0,1.2,0.2v1.6h-3.6V17c-1.1,0.8-2,1.4-3.4,1.4H72c-1.8,0-2.6-0.3-2.6-2.6v-0.2
			c0-2.1,1.2-2.4,2.8-2.6c1.4-0.2,2.1-0.2,3.6-0.4V12c0-1.3-0.6-1.7-1.8-1.7c-0.6,0-1.4,0.1-2,0.2l-0.1,1h-1.8V9.1
			c1.3-0.3,3-0.5,4.2-0.5H75c2.2,0,3.2,1.2,3.2,3.4L78.1,16.4L78.1,16.4z M73.4,16.7c0.9,0,1.7-0.5,2.4-1.2v-1.8
			c-0.6,0-1.7,0.2-2.5,0.3c-0.9,0.2-1.4,0.5-1.4,1.2v0.3c0,0.8,0.3,1.1,1.2,1.1H73.4z"/>
		<path fill="#909099" d="M96.2,16.4c0.2,0,0.6,0,1.3,0.2v1.7h-3.7v-5.9c0-1.5-0.1-1.8-1.2-1.8h-0.2c-0.8,0-1.6,0.4-2.4,1v4.8
			c0.2,0,0.6,0.1,1.3,0.2v1.7h-3.7v-5.9c0-1.5-0.1-1.8-1.2-1.8h-0.2c-0.8,0-1.5,0.4-2.3,1v4.9c0.4,0,0.8,0.1,1.2,0.2v1.7h-4.9v-1.7
			c0.4,0,0.9-0.1,1.2-0.2v-5.9c-0.4,0-0.8-0.1-1.2-0.1V8.8h3.6v1.3c1.1-0.8,2.2-1.5,3.6-1.5h0.2c1.3,0,2,0.4,2.3,1.7
			c1.1-0.9,2.4-1.7,3.8-1.7h0.3c1.6,0,2.4,0.7,2.4,2.6L96.2,16.4L96.2,16.4z"/>
		<path fill="#909099" d="M102.7,8.6c2.8,0,4,1.2,4,3.8v2.2h-6.6V15c0,1.2,0.8,1.7,1.9,1.7h0.8c0.8,0,1.4-0.1,1.7-0.8l0.1-0.4h1.9
			v1.6c-1,0.9-2.4,1.3-3.8,1.3h-0.6c-3.1,0-4.3-1.2-4.3-4.3v-1.6c0-2.7,1.4-4,4.3-4L102.7,8.6L102.7,8.6z M104.6,11.9
			c0-1.1-0.8-1.6-2-1.6h-0.6c-1.2,0-2,0.6-2,1.7v0.9h4.4L104.6,11.9L104.6,11.9z"/>
		<path fill="#909099" d="M116.7,16.4c0.3,0,0.7,0,1.2,0.2v1.6h-3.6v-1.3c-1.1,0.8-2.1,1.5-3.5,1.5h-0.3c-1.6,0-2.6-1-2.6-3.4v-3.3
			c0-2.1,1.2-3.1,2.8-3.1h0.3c1.5,0,2,0.2,3.4,1V7.3c-0.2,0-0.6-0.1-1.3-0.2V5.6h3.7L116.7,16.4L116.7,16.4z M112,16.4
			c0.8,0,1.5-0.3,2.3-0.9v-4.3c-1.1-0.6-1.5-0.6-2.3-0.6h-0.3c-1.1,0-1.4,0.6-1.4,1.8v2c0,1.5,0.4,2,1.4,2L112,16.4L112,16.4z"/>
		<path fill="#909099" d="M118.8,17.1c0-0.9,0.5-1.3,1.4-1.3s1.4,0.4,1.4,1.3c0,0.8-0.5,1.3-1.4,1.3S118.8,18,118.8,17.1z"/>
	</g>
	<g>
		<path fill="#909099" d="M6.5,10.1H7l0.1,0.5h0C7.3,10.3,7.6,10,8,10c0.4,0,0.7,0.2,0.8,0.7C9,10.3,9.3,10,9.8,10
			c0.6,0,0.9,0.4,0.9,1.3v2.9H10v-2.8c0-0.5-0.1-0.7-0.4-0.7c-0.3,0-0.5,0.2-0.7,0.6v2.9H8.3v-2.8c0-0.5-0.2-0.7-0.5-0.7
			c-0.3,0-0.5,0.2-0.7,0.6v2.9H6.5L6.5,10.1L6.5,10.1z"/>
		<path fill="#909099" d="M14.6,11.6c0-0.5-0.3-1-1.1-1c-0.5,0-1,0.2-1.4,0.5l-0.3-0.5c0.4-0.3,1.1-0.6,1.8-0.6
			c1.1,0,1.6,0.7,1.6,1.7v2.5h-0.6l-0.1-0.6h0c-0.5,0.4-1,0.6-1.6,0.6c-0.8,0-1.4-0.4-1.4-1.1C11.7,12.2,12.5,11.7,14.6,11.6z
			 M13.2,13.7c0.5,0,0.9-0.2,1.4-0.6V12c-1.7,0.1-2.3,0.5-2.3,1C12.4,13.5,12.8,13.7,13.2,13.7z"/>
		<path fill="#909099" d="M18.4,10c0.5,0,0.9,0.2,1.2,0.5l0-0.8V8.2h0.7v5.9h-0.6l-0.1-0.5h0c-0.3,0.3-0.8,0.6-1.3,0.6
			c-1.1,0-1.8-0.8-1.8-2.1C16.5,10.8,17.4,10,18.4,10z M18.4,13.7c0.4,0,0.8-0.2,1.1-0.6v-2c-0.4-0.3-0.7-0.5-1.1-0.5
			c-0.7,0-1.3,0.6-1.3,1.6C17.2,13.1,17.7,13.7,18.4,13.7z"/>
		<path fill="#909099" d="M23.7,10c1.2,0,1.8,0.8,1.8,1.9c0,0.1,0,0.3,0,0.4h-3.2c0,0.9,0.7,1.4,1.6,1.4c0.5,0,0.9-0.1,1.2-0.4
			l0.2,0.5c-0.4,0.3-0.9,0.5-1.6,0.5c-1.2,0-2.2-0.8-2.2-2.1C21.6,10.8,22.6,10,23.7,10z M24.9,11.8c0-0.8-0.5-1.3-1.2-1.3
			c-0.7,0-1.3,0.5-1.4,1.3H24.9z"/>
		<path fill="#909099" d="M31.9,8.2h0.7v1.6l0,0.8c0.4-0.4,0.9-0.6,1.4-0.6c1.1,0,1.7,0.8,1.7,2.1c0,1.4-0.9,2.2-1.8,2.2
			c-0.4,0-0.9-0.2-1.3-0.5h0l-0.1,0.5h-0.6L31.9,8.2L31.9,8.2z M33.6,13.7c0.7,0,1.2-0.6,1.2-1.6c0-0.9-0.3-1.5-1.1-1.5
			c-0.4,0-0.8,0.2-1.2,0.6v2C32.9,13.5,33.4,13.7,33.6,13.7z"/>
		<path fill="#909099" d="M37.2,15.3c0.6,0,0.9-0.4,1.1-0.9l0.1-0.3l-1.9-4.1h0.7l1,2.2c0.2,0.4,0.3,0.8,0.5,1.2h0
			c0.1-0.4,0.3-0.8,0.4-1.2l0.9-2.2h0.7l-1.8,4.4c-0.3,0.8-0.8,1.4-1.7,1.4c-0.2,0-0.4,0-0.5-0.1l0.1-0.5
			C36.9,15.3,37,15.3,37.2,15.3z"/>
	</g>
</g>
</svg>
